{
.appVersion = "895";
DisplayStrings = (
"",
"",
"Electronic\012ELECTRONIC\012Frontier\012Foundation\012electronic\012frontier\012foundation",
"ELECTRONIC FRONTIER",
POLARITY
);
copyright = "Copyright 2016 [No one yet]. SIL OFL License v1.1, reserved name \"Barlow\"";
date = "2016-07-12 00:27:02 +0000";
designer = "Jeremy Tribby";
designerURL = "http://tribby.com/";
familyName = Barlow;
fontMaster = (
{
ascender = 800;
capHeight = 700;
customParameters = (
{
name = paramArea;
value = "400";
},
{
name = paramDepth;
value = "10";
},
{
name = paramOver;
value = "0";
}
);
descender = -200;
id = "8841D1CF-9B01-449C-9B26-F87B28F18584";
userData = {
GSOffsetHorizontal = 98;
GSOffsetMakeStroke = 1;
GSOffsetVertical = 0;
noodleExtremesAndInflections = 0;
noodleRemoveOverlap = 1;
noodleThickness = "50.0";
};
weight = Light;
weightValue = 23;
xHeight = 500;
},
{
ascender = 800;
capHeight = 700;
customParameters = (
{
name = paramArea;
value = "220";
},
{
name = paramDepth;
value = "8";
},
{
name = paramOver;
value = "3";
}
);
descender = -200;
id = "59CB0402-E5A9-408B-857A-05EE50EAFC2E";
userData = {
GSOffsetHorizontal = 114;
GSOffsetMakeStroke = 1;
GSOffsetVertical = 0;
noodleExtremesAndInflections = 1;
noodleRemoveOverlap = 1;
noodleThickness = "50.0";
};
weight = Bold;
weightValue = 202;
xHeight = 500;
}
);
glyphs = (
{
color = 1;
glyphname = A;
lastChange = "2016-09-25 22:41:52 +0000";
layers = (
{
layerId = "8841D1CF-9B01-449C-9B26-F87B28F18584";
paths = (
{
closed = 1;
nodes = (
"79 0 LINE",
"268 660 LINE",
"457 0 LINE",
"479 0 LINE",
"279 700 LINE",
"257 700 LINE",
"57 0 LINE"
);
},
{
closed = 1;
nodes = (
"418 165 LINE",
"418 186 LINE",
"118 186 LINE",
"118 165 LINE"
);
}
);
width = 536;
},
{
layerId = "59CB0402-E5A9-408B-857A-05EE50EAFC2E";
paths = (
{
closed = 1;
nodes = (
"235 0 LINE",
"336 412 LINE",
"437 0 LINE",
"652 0 LINE",
"442 700 LINE",
"230 700 LINE",
"20 0 LINE"
);
},
{
closed = 1;
nodes = (
"486 85 LINE",
"486 243 LINE",
"186 243 LINE",
"186 85 LINE"
);
}
);
width = 672;
}
);
unicode = 0041;
},
{
color = 1;
glyphname = B;
lastChange = "2016-09-25 22:41:53 +0000";
layers = (
{
layerId = "8841D1CF-9B01-449C-9B26-F87B28F18584";
paths = (
{
closed = 1;
nodes = (
"241 0 LINE SMOOTH",
"356 0 OFFCURVE",
"427 71 OFFCURVE",
"427 186 CURVE SMOOTH",
"427 301 OFFCURVE",
"356 372 OFFCURVE",
"241 372 CURVE SMOOTH",
"105 372 LINE",
"105 0 LINE"
);
},
{
closed = 1;
nodes = (
"127 351 LINE",
"241 351 LINE SMOOTH",
"343 351 OFFCURVE",
"405 288 OFFCURVE",
"405 186 CURVE SMOOTH",
"405 84 OFFCURVE",
"343 22 OFFCURVE",
"241 22 CURVE SMOOTH",
"127 22 LINE"
);
},
{
closed = 1;
nodes = (
"241 351 LINE SMOOTH",
"356 351 OFFCURVE",
"427 415 OFFCURVE",
"427 523 CURVE SMOOTH",
"427 631 OFFCURVE",
"356 700 OFFCURVE",
"241 700 CURVE SMOOTH",
"105 700 LINE",
"105 351 LINE"
);
},
{
closed = 1;
nodes = (
"127 679 LINE",
"241 679 LINE SMOOTH",
"343 679 OFFCURVE",
"405 618 OFFCURVE",
"405 523 CURVE SMOOTH",
"405 428 OFFCURVE",
"343 372 OFFCURVE",
"241 372 CURVE SMOOTH",
"127 372 LINE"
);
}
);
width = 503;
},
{
layerId = "59CB0402-E5A9-408B-857A-05EE50EAFC2E";
paths = (
{
closed = 1;
nodes = (
"336 0 LINE SMOOTH",
"480 0 OFFCURVE",
"567 87 OFFCURVE",
"567 201 CURVE SMOOTH",
"567 350 OFFCURVE",
"419 422 OFFCURVE",
"306 422 CURVE",
"55 422 LINE",
"55 0 LINE"
);
},
{
closed = 1;
nodes = (
"267 278 LINE",
"307 278 LINE SMOOTH",
"337 278 OFFCURVE",
"355 261 OFFCURVE",
"355 233 CURVE SMOOTH",
"355 205 OFFCURVE",
"336 188 OFFCURVE",
"306 188 CURVE SMOOTH",
"267 188 LINE"
);
},
{
closed = 1;
nodes = (
"307 278 LINE SMOOTH",
"411 278 OFFCURVE",
"567 347 OFFCURVE",
"567 499 CURVE SMOOTH",
"567 613 OFFCURVE",
"479 700 OFFCURVE",
"336 700 CURVE SMOOTH",
"55 700 LINE",
"55 278 LINE"
);
},
{
closed = 1;
nodes = (
"267 512 LINE",
"306 512 LINE SMOOTH",
"336 512 OFFCURVE",
"355 495 OFFCURVE",
"355 467 CURVE SMOOTH",
"355 439 OFFCURVE",
"336 422 OFFCURVE",
"306 422 CURVE",
"267 422 LINE"
);
}
);
width = 601;
}
);
unicode = 0042;
},
{
color = 1;
glyphname = C;
lastChange = "2016-09-25 22:41:52 +0000";
layers = (
{
layerId = "8841D1CF-9B01-449C-9B26-F87B28F18584";
paths = (
{
closed = 1;
nodes = (
"340 -11 OFFCURVE",
"402 50 OFFCURVE",
"402 150 CURVE SMOOTH",
"402 152 LINE",
"380 152 LINE",
"380 150 LINE SMOOTH",
"380 64 OFFCURVE",
"328 11 OFFCURVE",
"241 11 CURVE SMOOTH",
"154 11 OFFCURVE",
"102 64 OFFCURVE",
"102 150 CURVE SMOOTH",
"102 550 LINE SMOOTH",
"102 637 OFFCURVE",
"156 690 OFFCURVE",
"241 690 CURVE SMOOTH",
"326 690 OFFCURVE",
"380 637 OFFCURVE",
"380 550 CURVE SMOOTH",
"380 548 LINE",
"402 548 LINE",
"402 550 LINE SMOOTH",
"402 650 OFFCURVE",
"340 711 OFFCURVE",
"241 711 CURVE SMOOTH",
"142 711 OFFCURVE",
"80 650 OFFCURVE",
"80 550 CURVE SMOOTH",
"80 150 LINE SMOOTH",
"80 50 OFFCURVE",
"142 -11 OFFCURVE",
"241 -11 CURVE SMOOTH"
);
}
);
width = 467;
},
{
layerId = "59CB0402-E5A9-408B-857A-05EE50EAFC2E";
paths = (
{
closed = 1;
nodes = (
"439 -10 OFFCURVE",
"554 76 OFFCURVE",
"554 183 CURVE SMOOTH",
"554 278 LINE",
"342 278 LINE",
"342 223 LINE SMOOTH",
"342 197 OFFCURVE",
"321 178 OFFCURVE",
"298 178 CURVE SMOOTH",
"275 178 OFFCURVE",
"254 197 OFFCURVE",
"254 223 CURVE SMOOTH",
"254 477 LINE SMOOTH",
"254 503 OFFCURVE",
"275 522 OFFCURVE",
"298 522 CURVE SMOOTH",
"321 522 OFFCURVE",
"342 503 OFFCURVE",
"342 477 CURVE SMOOTH",
"342 422 LINE",
"554 422 LINE",
"554 517 LINE SMOOTH",
"554 624 OFFCURVE",
"439 710 OFFCURVE",
"298 710 CURVE SMOOTH",
"157 710 OFFCURVE",
"42 624 OFFCURVE",
"42 517 CURVE SMOOTH",
"42 183 LINE SMOOTH",
"42 76 OFFCURVE",
"157 -10 OFFCURVE",
"298 -10 CURVE SMOOTH"
);
}
);
width = 589;
}
);
unicode = 0043;
},
{
color = 1;
glyphname = D;
lastChange = "2016-09-25 22:41:52 +0000";
layers = (
{
layerId = "8841D1CF-9B01-449C-9B26-F87B28F18584";
paths = (
{
closed = 1;
nodes = (
"261 0 LINE SMOOTH",
"361 0 OFFCURVE",
"422 61 OFFCURVE",
"422 161 CURVE SMOOTH",
"422 539 LINE SMOOTH",
"422 639 OFFCURVE",
"361 700 OFFCURVE",
"261 700 CURVE SMOOTH",
"100 700 LINE",
"100 0 LINE"
);
},
{
closed = 1;
nodes = (
"122 679 LINE",
"261 679 LINE SMOOTH",
"347 679 OFFCURVE",
"400 626 OFFCURVE",
"400 539 CURVE SMOOTH",
"400 161 LINE SMOOTH",
"400 75 OFFCURVE",
"347 22 OFFCURVE",
"261 22 CURVE SMOOTH",
"122 22 LINE"
);
}
);
width = 512;
},
{
layerId = "59CB0402-E5A9-408B-857A-05EE50EAFC2E";
paths = (
{
closed = 1;
nodes = (
"341 0 LINE SMOOTH",
"477 0 OFFCURVE",
"567 77 OFFCURVE",
"567 193 CURVE SMOOTH",
"567 507 LINE SMOOTH",
"567 623 OFFCURVE",
"477 700 OFFCURVE",
"341 700 CURVE SMOOTH",
"55 700 LINE",
"55 0 LINE"
);
},
{
closed = 1;
nodes = (
"267 512 LINE",
"311 512 LINE SMOOTH",
"337 512 OFFCURVE",
"355 494 OFFCURVE",
"355 467 CURVE SMOOTH",
"355 233 LINE SMOOTH",
"355 206 OFFCURVE",
"337 188 OFFCURVE",
"311 188 CURVE SMOOTH",
"267 188 LINE"
);
}
);
width = 609;
}
);
unicode = 0044;
},
{
color = 1;
glyphname = E;
lastChange = "2016-09-25 22:41:52 +0000";
layers = (
{
layerId = "8841D1CF-9B01-449C-9B26-F87B28F18584";
paths = (
{
closed = 1;
nodes = (
"411 0 LINE",
"411 22 LINE",
"122 22 LINE",
"122 679 LINE",
"411 679 LINE",
"411 700 LINE",
"100 700 LINE",
"100 0 LINE"
);
},
{
closed = 1;
nodes = (
"311 340 LINE",
"311 361 LINE",
"111 361 LINE",
"111 340 LINE"
);
}
);
width = 467;
},
{
layerId = "59CB0402-E5A9-408B-857A-05EE50EAFC2E";
paths = (
{
closed = 1;
nodes = (
"481 0 LINE",
"481 188 LINE",
"267 188 LINE",
"267 512 LINE",
"481 512 LINE",
"481 700 LINE",
"55 700 LINE",
"55 0 LINE"
);
},
{
closed = 1;
nodes = (
"401 266 LINE",
"401 434 LINE",
"181 434 LINE",
"181 266 LINE"
);
}
);
width = 520;
}
);
unicode = 0045;
},
{
color = 1;
glyphname = F;
lastChange = "2016-09-25 22:41:53 +0000";
layers = (
{
layerId = "8841D1CF-9B01-449C-9B26-F87B28F18584";
paths = (
{
closed = 1;
nodes = (
"122 0 LINE",
"122 679 LINE",
"411 679 LINE",
"411 700 LINE",
"100 700 LINE",
"100 0 LINE"
);
},
{
closed = 1;
nodes = (
"311 340 LINE",
"311 361 LINE",
"111 361 LINE",
"111 340 LINE"
);
}
);
width = 464;
},
{
layerId = "59CB0402-E5A9-408B-857A-05EE50EAFC2E";
paths = (
{
closed = 1;
nodes = (
"267 0 LINE",
"267 512 LINE",
"481 512 LINE",
"481 700 LINE",
"55 700 LINE",
"55 0 LINE"
);
},
{
closed = 1;
nodes = (
"401 266 LINE",
"401 434 LINE",
"181 434 LINE",
"181 266 LINE"
);
}
);
width = 509;
}
);
unicode = 0046;
},
{
color = 1;
glyphname = G;
lastChange = "2016-09-25 22:41:53 +0000";
layers = (
{
layerId = "8841D1CF-9B01-449C-9B26-F87B28F18584";
paths = (
{
closed = 1;
nodes = (
"356 -11 OFFCURVE",
"418 51 OFFCURVE",
"418 150 CURVE SMOOTH",
"418 361 LINE",
"257 361 LINE",
"257 340 LINE",
"396 340 LINE",
"396 150 LINE SMOOTH",
"396 63 OFFCURVE",
"344 11 OFFCURVE",
"257 11 CURVE SMOOTH",
"170 11 OFFCURVE",
"118 63 OFFCURVE",
"118 150 CURVE SMOOTH",
"118 550 LINE SMOOTH",
"118 637 OFFCURVE",
"170 690 OFFCURVE",
"257 690 CURVE SMOOTH",
"344 690 OFFCURVE",
"396 637 OFFCURVE",
"396 550 CURVE",
"418 550 LINE",
"418 649 OFFCURVE",
"356 711 OFFCURVE",
"257 711 CURVE SMOOTH",
"158 711 OFFCURVE",
"96 649 OFFCURVE",
"96 550 CURVE SMOOTH",
"96 150 LINE SMOOTH",
"96 51 OFFCURVE",
"158 -11 OFFCURVE",
"257 -11 CURVE SMOOTH"
);
}
);
width = 496;
},
{
layerId = "59CB0402-E5A9-408B-857A-05EE50EAFC2E";
paths = (
{
closed = 1;
nodes = (
"455 -10 OFFCURVE",
"552 83 OFFCURVE",
"552 234 CURVE SMOOTH",
"552 400 LINE",
"296 400 LINE",
"296 270 LINE",
"340 270 LINE",
"340 234 LINE SMOOTH",
"340 199 OFFCURVE",
"323 178 OFFCURVE",
"296 178 CURVE SMOOTH",
"269 178 OFFCURVE",
"252 199 OFFCURVE",
"252 234 CURVE SMOOTH",
"252 466 LINE SMOOTH",
"252 501 OFFCURVE",
"269 522 OFFCURVE",
"296 522 CURVE SMOOTH",
"323 522 OFFCURVE",
"340 501 OFFCURVE",
"340 466 CURVE",
"552 466 LINE",
"552 617 OFFCURVE",
"455 710 OFFCURVE",
"296 710 CURVE SMOOTH",
"137 710 OFFCURVE",
"40 617 OFFCURVE",
"40 466 CURVE SMOOTH",
"40 234 LINE SMOOTH",
"40 83 OFFCURVE",
"137 -10 OFFCURVE",
"296 -10 CURVE SMOOTH"
);
}
);
width = 589;
}
);
unicode = 0047;
},
{
color = 1;
glyphname = H;
lastChange = "2016-09-25 22:41:53 +0000";
layers = (
{
layerId = "8841D1CF-9B01-449C-9B26-F87B28F18584";
paths = (
{
closed = 1;
nodes = (
"427 0 LINE",
"427 700 LINE",
"405 700 LINE",
"405 0 LINE"
);
},
{
closed = 1;
nodes = (
"127 0 LINE",
"127 700 LINE",
"105 700 LINE",
"105 0 LINE"
);
},
{
closed = 1;
nodes = (
"410 340 LINE",
"410 361 LINE",
"122 361 LINE",
"122 340 LINE"
);
}
);
width = 532;
},
{
layerId = "59CB0402-E5A9-408B-857A-05EE50EAFC2E";
paths = (
{
closed = 1;
nodes = (
"567 0 LINE",
"567 700 LINE",
"355 700 LINE",
"355 0 LINE"
);
},
{
closed = 1;
nodes = (
"267 0 LINE",
"267 700 LINE",
"55 700 LINE",
"55 0 LINE"
);
},
{
closed = 1;
nodes = (
"371 256 LINE",
"371 444 LINE",
"251 444 LINE",
"251 256 LINE"
);
}
);
width = 622;
}
);
unicode = 0048;
},
{
color = 1;
glyphname = I;
lastChange = "2016-09-25 22:41:53 +0000";
layers = (
{
layerId = "8841D1CF-9B01-449C-9B26-F87B28F18584";
paths = (
{
closed = 1;
nodes = (
"122 0 LINE",
"122 700 LINE",
"100 700 LINE",
"100 0 LINE"
);
}
);
width = 222;
},
{
layerId = "59CB0402-E5A9-408B-857A-05EE50EAFC2E";
paths = (
{
closed = 1;
nodes = (
"257 0 LINE",
"257 700 LINE",
"55 700 LINE",
"55 0 LINE"
);
}
);
width = 312;
}
);
unicode = 0049;
},
{
color = 1;
glyphname = J;
lastChange = "2016-09-25 22:41:53 +0000";
layers = (
{
layerId = "8841D1CF-9B01-449C-9B26-F87B28F18584";
paths = (
{
closed = 1;
nodes = (
"301 -11 OFFCURVE",
"362 50 OFFCURVE",
"362 150 CURVE SMOOTH",
"362 700 LINE",
"340 700 LINE",
"340 150 LINE",
"340 64 OFFCURVE",
"287 11 OFFCURVE",
"201 11 CURVE SMOOTH",
"115 11 OFFCURVE",
"62 64 OFFCURVE",
"62 150 CURVE SMOOTH",
"62 200 LINE",
"40 200 LINE",
"40 150 LINE SMOOTH",
"40 50 OFFCURVE",
"101 -11 OFFCURVE",
"201 -11 CURVE SMOOTH"
);
}
);
width = 463;
},
{
layerId = "59CB0402-E5A9-408B-857A-05EE50EAFC2E";
paths = (
{
closed = 1;
nodes = (
"432 -10 OFFCURVE",
"537 89 OFFCURVE",
"537 235 CURVE",
"532 702 LINE",
"320 700 LINE",
"325 233 LINE",
"325 190 OFFCURVE",
"312 178 OFFCURVE",
"281 178 CURVE SMOOTH",
"250 178 OFFCURVE",
"237 190 OFFCURVE",
"237 234 CURVE SMOOTH",
"237 284 LINE",
"25 284 LINE",
"25 234 LINE SMOOTH",
"25 89 OFFCURVE",
"130 -10 OFFCURVE",
"281 -10 CURVE SMOOTH"
);
}
);
width = 583;
}
);
unicode = 004A;
},
{
color = 1;
glyphname = K;
lastChange = "2016-09-25 22:41:52 +0000";
layers = (
{
layerId = "8841D1CF-9B01-449C-9B26-F87B28F18584";
paths = (
{
closed = 1;
nodes = (
"439 0 LINE",
"141 350 LINE",
"439 700 LINE",
"413 700 LINE",
"113 350 LINE",
"413 0 LINE"
);
},
{
closed = 1;
nodes = (
"127 0 LINE",
"127 700 LINE",
"105 700 LINE",
"105 0 LINE"
);
}
);
width = 468;
},
{
layerId = "59CB0402-E5A9-408B-857A-05EE50EAFC2E";
paths = (
{
closed = 1;
nodes = (
"634 0 LINE",
"394 350 LINE",
"634 700 LINE",
"368 700 LINE",
"158 350 LINE",
"368 0 LINE"
);
},
{
closed = 1;
nodes = (
"267 0 LINE",
"267 700 LINE",
"55 700 LINE",
"55 0 LINE"
);
}
);
width = 654;
}
);
unicode = 004B;
},
{
color = 1;
glyphname = L;
lastChange = "2016-09-25 22:41:53 +0000";
layers = (
{
layerId = "8841D1CF-9B01-449C-9B26-F87B28F18584";
paths = (
{
closed = 1;
nodes = (
"411 0 LINE",
"411 22 LINE",
"122 22 LINE",
"122 700 LINE",
"100 700 LINE",
"100 0 LINE"
);
}
);
width = 464;
},
{
layerId = "59CB0402-E5A9-408B-857A-05EE50EAFC2E";
paths = (
{
closed = 1;
nodes = (
"502 0 LINE",
"502 202 LINE",
"267 202 LINE",
"267 700 LINE",
"55 700 LINE",
"55 0 LINE"
);
}
);
width = 530;
}
);
unicode = 004C;
},
{
color = 1;
glyphname = M;
lastChange = "2016-09-25 22:41:52 +0000";
layers = (
{
layerId = "8841D1CF-9B01-449C-9B26-F87B28F18584";
paths = (
{
closed = 1;
nodes = (
"127 0 LINE",
"127 659 LINE",
"316 328 LINE",
"505 659 LINE",
"505 0 LINE",
"527 0 LINE",
"527 700 LINE",
"504 700 LINE",
"316 372 LINE",
"128 700 LINE",
"105 700 LINE",
"105 0 LINE"
);
}
);
width = 632;
},
{
layerId = "59CB0402-E5A9-408B-857A-05EE50EAFC2E";
paths = (
{
closed = 1;
nodes = (
"267 0 LINE",
"267 337 LINE",
"361 142 LINE",
"455 337 LINE",
"455 0 LINE",
"667 0 LINE",
"667 698 LINE",
"451 698 LINE",
"361 518 LINE",
"268 702 LINE",
"55 702 LINE",
"55 0 LINE"
);
}
);
width = 722;
}
);
unicode = 004D;
},
{
color = 1;
glyphname = N;
lastChange = "2016-09-25 22:41:53 +0000";
layers = (
{
layerId = "8841D1CF-9B01-449C-9B26-F87B28F18584";
paths = (
{
closed = 1;
nodes = (
"122 0 LINE",
"122 647 LINE",
"399 0 LINE",
"422 0 LINE",
"422 700 LINE",
"400 700 LINE",
"400 53 LINE",
"123 700 LINE",
"100 700 LINE",
"100 0 LINE"
);
}
);
width = 522;
},
{
layerId = "59CB0402-E5A9-408B-857A-05EE50EAFC2E";
paths = (
{
closed = 1;
nodes = (
"267 0 LINE",
"267 254 LINE",
"387 2 LINE",
"587 2 LINE",
"587 700 LINE",
"375 700 LINE",
"375 447 LINE",
"255 699 LINE",
"55 699 LINE",
"55 0 LINE"
);
}
);
width = 642;
}
);
unicode = 004E;
},
{
color = 1;
glyphname = O;
lastChange = "2016-09-25 22:41:53 +0000";
layers = (
{
layerId = "8841D1CF-9B01-449C-9B26-F87B28F18584";
paths = (
{
closed = 1;
nodes = (
"341 -11 OFFCURVE",
"413 60 OFFCURVE",
"413 150 CURVE SMOOTH",
"413 550 LINE SMOOTH",
"413 640 OFFCURVE",
"341 711 OFFCURVE",
"252 711 CURVE SMOOTH",
"163 711 OFFCURVE",
"91 640 OFFCURVE",
"91 550 CURVE SMOOTH",
"91 150 LINE SMOOTH",
"91 60 OFFCURVE",
"163 -11 OFFCURVE",
"252 -11 CURVE SMOOTH"
);
},
{
closed = 1;
nodes = (
"173 11 OFFCURVE",
"113 72 OFFCURVE",
"113 150 CURVE SMOOTH",
"113 550 LINE SMOOTH",
"113 629 OFFCURVE",
"175 690 OFFCURVE",
"252 690 CURVE SMOOTH",
"329 690 OFFCURVE",
"391 629 OFFCURVE",
"391 550 CURVE SMOOTH",
"391 150 LINE SMOOTH",
"391 72 OFFCURVE",
"331 11 OFFCURVE",
"252 11 CURVE SMOOTH"
);
}
);
width = 504;
},
{
layerId = "59CB0402-E5A9-408B-857A-05EE50EAFC2E";
paths = (
{
closed = 1;
nodes = (
"465 -10 OFFCURVE",
"552 73 OFFCURVE",
"552 233 CURVE SMOOTH",
"552 467 LINE SMOOTH",
"552 627 OFFCURVE",
"465 710 OFFCURVE",
"296 710 CURVE SMOOTH",
"127 710 OFFCURVE",
"40 627 OFFCURVE",
"40 467 CURVE SMOOTH",
"40 233 LINE SMOOTH",
"40 73 OFFCURVE",
"127 -10 OFFCURVE",
"296 -10 CURVE SMOOTH"
);
},
{
closed = 1;
nodes = (
"273 178 OFFCURVE",
"252 197 OFFCURVE",
"252 223 CURVE SMOOTH",
"252 477 LINE SMOOTH",
"252 503 OFFCURVE",
"273 522 OFFCURVE",
"296 522 CURVE SMOOTH",
"319 522 OFFCURVE",
"340 503 OFFCURVE",
"340 477 CURVE SMOOTH",
"340 223 LINE SMOOTH",
"340 197 OFFCURVE",
"319 178 OFFCURVE",
"296 178 CURVE SMOOTH"
);
}
);
width = 592;
}
);
unicode = 004F;
},
{
color = 1;
glyphname = P;
lastChange = "2016-09-25 22:41:52 +0000";
layers = (
{
layerId = "8841D1CF-9B01-449C-9B26-F87B28F18584";
paths = (
{
closed = 1;
nodes = (
"127 0 LINE",
"127 690 LINE",
"266 690 LINE SMOOTH",
"369 690 OFFCURVE",
"430 627 OFFCURVE",
"430 526 CURVE SMOOTH",
"430 423 OFFCURVE",
"367 361 OFFCURVE",
"266 361 CURVE SMOOTH",
"122 361 LINE",
"122 339 LINE",
"266 340 LINE SMOOTH",
"381 341 OFFCURVE",
"452 410 OFFCURVE",
"452 525 CURVE SMOOTH",
"452 640 OFFCURVE",
"381 711 OFFCURVE",
"266 711 CURVE SMOOTH",
"105 711 LINE",
"105 0 LINE"
);
}
);
width = 499;
},
{
layerId = "59CB0402-E5A9-408B-857A-05EE50EAFC2E";
paths = (
{
closed = 1;
nodes = (
"267 0 LINE",
"267 512 LINE",
"306 512 LINE SMOOTH",
"336 512 OFFCURVE",
"355 493 OFFCURVE",
"355 462 CURVE SMOOTH",
"355 431 OFFCURVE",
"336 412 OFFCURVE",
"306 412 CURVE SMOOTH",
"251 412 LINE",
"251 233 LINE",
"336 233 LINE SMOOTH",
"475 233 OFFCURVE",
"567 333 OFFCURVE",
"567 483 CURVE SMOOTH",
"567 613 OFFCURVE",
"475 700 OFFCURVE",
"336 700 CURVE SMOOTH",
"55 700 LINE",
"55 0 LINE"
);
}
);
width = 594;
}
);
unicode = 0050;
},
{
color = 1;
glyphname = Q;
lastChange = "2016-09-25 22:52:33 +0000";
layers = (
{
layerId = "8841D1CF-9B01-449C-9B26-F87B28F18584";
paths = (
{
closed = 1;
nodes = (
"341 -11 OFFCURVE",
"413 60 OFFCURVE",
"413 150 CURVE SMOOTH",
"413 550 LINE SMOOTH",
"413 640 OFFCURVE",
"341 711 OFFCURVE",
"252 711 CURVE SMOOTH",
"163 711 OFFCURVE",
"91 640 OFFCURVE",
"91 550 CURVE SMOOTH",
"91 150 LINE SMOOTH",
"91 60 OFFCURVE",
"163 -11 OFFCURVE",
"252 -11 CURVE SMOOTH"
);
},
{
closed = 1;
nodes = (
"173 11 OFFCURVE",
"113 72 OFFCURVE",
"113 150 CURVE SMOOTH",
"113 550 LINE SMOOTH",
"113 629 OFFCURVE",
"175 690 OFFCURVE",
"252 690 CURVE SMOOTH",
"329 690 OFFCURVE",
"391 629 OFFCURVE",
"391 550 CURVE SMOOTH",
"391 150 LINE SMOOTH",
"391 72 OFFCURVE",
"331 11 OFFCURVE",
"252 11 CURVE SMOOTH"
);
}
);
width = 510;
},
{
layerId = "59CB0402-E5A9-408B-857A-05EE50EAFC2E";
paths = (
{
closed = 1;
nodes = (
"465 -10 OFFCURVE",
"552 73 OFFCURVE",
"552 233 CURVE SMOOTH",
"552 467 LINE SMOOTH",
"552 627 OFFCURVE",
"465 710 OFFCURVE",
"296 710 CURVE SMOOTH",
"127 710 OFFCURVE",
"40 627 OFFCURVE",
"40 467 CURVE SMOOTH",
"40 233 LINE SMOOTH",
"40 73 OFFCURVE",
"127 -10 OFFCURVE",
"296 -10 CURVE SMOOTH"
);
},
{
closed = 1;
nodes = (
"273 178 OFFCURVE",
"252 197 OFFCURVE",
"252 223 CURVE SMOOTH",
"252 477 LINE SMOOTH",
"252 503 OFFCURVE",
"273 522 OFFCURVE",
"296 522 CURVE SMOOTH",
"319 522 OFFCURVE",
"340 503 OFFCURVE",
"340 477 CURVE SMOOTH",
"340 223 LINE SMOOTH",
"340 197 OFFCURVE",
"319 178 OFFCURVE",
"296 178 CURVE SMOOTH"
);
}
);
width = 592;
}
);
unicode = 0051;
},
{
color = 1;
glyphname = R;
lastChange = "2016-09-25 22:41:53 +0000";
layers = (
{
layerId = "8841D1CF-9B01-449C-9B26-F87B28F18584";
paths = (
{
closed = 1;
nodes = (
"122 0 LINE",
"122 690 LINE",
"261 690 LINE SMOOTH",
"363 690 OFFCURVE",
"425 627 OFFCURVE",
"425 525 CURVE SMOOTH",
"425 424 OFFCURVE",
"363 361 OFFCURVE",
"261 361 CURVE SMOOTH",
"117 361 LINE",
"117 340 LINE",
"261 340 LINE SMOOTH",
"376 340 OFFCURVE",
"447 410 OFFCURVE",
"447 525 CURVE SMOOTH",
"447 641 OFFCURVE",
"376 711 OFFCURVE",
"261 711 CURVE SMOOTH",
"100 711 LINE",
"100 0 LINE"
);
},
{
closed = 1;
nodes = (
"438 0 LINE",
"271 354 LINE",
"251 346 LINE",
"414 0 LINE"
);
}
);
width = 514;
},
{
layerId = "59CB0402-E5A9-408B-857A-05EE50EAFC2E";
paths = (
{
closed = 1;
nodes = (
"267 0 LINE",
"267 512 LINE",
"326 512 LINE SMOOTH",
"356 512 OFFCURVE",
"375 493 OFFCURVE",
"375 462 CURVE SMOOTH",
"375 431 OFFCURVE",
"356 412 OFFCURVE",
"326 412 CURVE SMOOTH",
"251 412 LINE",
"251 233 LINE",
"356 233 LINE SMOOTH",
"495 233 OFFCURVE",
"587 333 OFFCURVE",
"587 483 CURVE SMOOTH",
"587 613 OFFCURVE",
"495 700 OFFCURVE",
"356 700 CURVE SMOOTH",
"55 700 LINE",
"55 0 LINE"
);
},
{
closed = 1;
nodes = (
"606 0 LINE",
"434 330 LINE",
"236 330 LINE",
"378 0 LINE"
);
}
);
width = 629;
}
);
unicode = 0052;
},
{
color = 1;
glyphname = S;
lastChange = "2016-09-25 22:41:52 +0000";
layers = (
{
layerId = "8841D1CF-9B01-449C-9B26-F87B28F18584";
paths = (
{
closed = 1;
nodes = (
"326 -11 OFFCURVE",
"391 53 OFFCURVE",
"391 150 CURVE SMOOTH",
"391 257 OFFCURVE",
"312 310 OFFCURVE",
"236 361 CURVE SMOOTH",
"162 409 OFFCURVE",
"91 457 OFFCURVE",
"91 550 CURVE SMOOTH",
"91 634 OFFCURVE",
"148 690 OFFCURVE",
"230 690 CURVE SMOOTH",
"312 690 OFFCURVE",
"369 634 OFFCURVE",
"369 550 CURVE SMOOTH",
"369 500 LINE",
"391 500 LINE",
"391 550 LINE SMOOTH",
"391 647 OFFCURVE",
"326 711 OFFCURVE",
"230 711 CURVE SMOOTH",
"134 711 OFFCURVE",
"69 647 OFFCURVE",
"69 550 CURVE SMOOTH",
"69 443 OFFCURVE",
"147 390 OFFCURVE",
"224 339 CURVE SMOOTH",
"297 291 OFFCURVE",
"369 243 OFFCURVE",
"369 149 CURVE SMOOTH",
"369 67 OFFCURVE",
"314 11 OFFCURVE",
"230 11 CURVE SMOOTH",
"146 11 OFFCURVE",
"91 67 OFFCURVE",
"91 150 CURVE SMOOTH",
"91 200 LINE",
"69 200 LINE",
"69 150 LINE SMOOTH",
"69 53 OFFCURVE",
"134 -11 OFFCURVE",
"230 -11 CURVE SMOOTH"
);
}
);
width = 459;
},
{
layerId = "59CB0402-E5A9-408B-857A-05EE50EAFC2E";
paths = (
{
closed = 1;
nodes = (
"420 -10 OFFCURVE",
"510 71 OFFCURVE",
"510 194 CURVE SMOOTH",
"510 304 OFFCURVE",
"438 376 OFFCURVE",
"332 419 CURVE SMOOTH",
"278 441 OFFCURVE",
"230 449 OFFCURVE",
"230 484 CURVE SMOOTH",
"230 504 OFFCURVE",
"245 522 OFFCURVE",
"274 522 CURVE SMOOTH",
"301 522 OFFCURVE",
"318 505 OFFCURVE",
"318 477 CURVE SMOOTH",
"318 468 LINE",
"510 476 LINE",
"510 487 LINE SMOOTH",
"510 621 OFFCURVE",
"411 710 OFFCURVE",
"268 710 CURVE SMOOTH",
"129 710 OFFCURVE",
"38 627 OFFCURVE",
"38 506 CURVE SMOOTH",
"38 399 OFFCURVE",
"109 322 OFFCURVE",
"216 281 CURVE SMOOTH",
"260 264 OFFCURVE",
"318 251 OFFCURVE",
"318 217 CURVE SMOOTH",
"318 199 OFFCURVE",
"303 178 OFFCURVE",
"274 178 CURVE SMOOTH",
"247 178 OFFCURVE",
"230 195 OFFCURVE",
"230 223 CURVE SMOOTH",
"230 232 LINE",
"28 224 LINE",
"28 213 LINE SMOOTH",
"28 79 OFFCURVE",
"127 -10 OFFCURVE",
"277 -10 CURVE SMOOTH"
);
}
);
width = 541;
}
);
unicode = 0053;
},
{
color = 1;
glyphname = T;
lastChange = "2016-09-25 22:41:52 +0000";
layers = (
{
layerId = "8841D1CF-9B01-449C-9B26-F87B28F18584";
paths = (
{
closed = 1;
nodes = (
"210 0 LINE",
"210 689 LINE",
"188 689 LINE",
"188 0 LINE"
);
},
{
closed = 1;
nodes = (
"353 679 LINE",
"353 700 LINE",
"53 700 LINE",
"53 679 LINE"
);
}
);
width = 406;
},
{
layerId = "59CB0402-E5A9-408B-857A-05EE50EAFC2E";
paths = (
{
closed = 1;
nodes = (
"388 0 LINE",
"388 606 LINE",
"176 606 LINE",
"176 0 LINE"
);
},
{
closed = 1;
nodes = (
"536 512 LINE",
"536 700 LINE",
"28 700 LINE",
"28 512 LINE"
);
}
);
width = 564;
}
);
unicode = 0054;
},
{
color = 1;
glyphname = U;
lastChange = "2016-09-25 22:41:52 +0000";
layers = (
{
layerId = "8841D1CF-9B01-449C-9B26-F87B28F18584";
paths = (
{
closed = 1;
nodes = (
"356 -11 OFFCURVE",
"418 50 OFFCURVE",
"418 150 CURVE SMOOTH",
"418 700 LINE",
"396 700 LINE",
"396 150 LINE SMOOTH",
"396 64 OFFCURVE",
"344 11 OFFCURVE",
"257 11 CURVE SMOOTH",
"170 11 OFFCURVE",
"118 64 OFFCURVE",
"118 150 CURVE SMOOTH",
"118 700 LINE",
"96 700 LINE",
"96 150 LINE SMOOTH",
"96 50 OFFCURVE",
"158 -11 OFFCURVE",
"257 -11 CURVE SMOOTH"
);
}
);
width = 514;
},
{
layerId = "59CB0402-E5A9-408B-857A-05EE50EAFC2E";
paths = (
{
closed = 1;
nodes = (
"454 -10 OFFCURVE",
"559 89 OFFCURVE",
"559 234 CURVE SMOOTH",
"559 700 LINE",
"347 700 LINE",
"347 234 LINE SMOOTH",
"347 190 OFFCURVE",
"334 178 OFFCURVE",
"303 178 CURVE SMOOTH",
"272 178 OFFCURVE",
"259 190 OFFCURVE",
"259 234 CURVE SMOOTH",
"259 700 LINE",
"47 700 LINE",
"47 234 LINE SMOOTH",
"47 89 OFFCURVE",
"152 -10 OFFCURVE",
"303 -10 CURVE SMOOTH"
);
}
);
width = 606;
}
);
unicode = 0055;
},
{
color = 1;
glyphname = V;
lastChange = "2016-09-25 22:41:53 +0000";
layers = (
{
layerId = "8841D1CF-9B01-449C-9B26-F87B28F18584";
paths = (
{
closed = 1;
nodes = (
"258 0 LINE",
"458 700 LINE",
"436 700 LINE",
"247 40 LINE",
"58 700 LINE",
"36 700 LINE",
"236 0 LINE"
);
}
);
width = 494;
},
{
layerId = "59CB0402-E5A9-408B-857A-05EE50EAFC2E";
paths = (
{
closed = 1;
nodes = (
"439 1 LINE",
"639 700 LINE",
"421 700 LINE",
"330 323 LINE",
"239 700 LINE",
"21 700 LINE",
"221 1 LINE"
);
}
);
width = 660;
}
);
unicode = 0056;
},
{
color = 1;
glyphname = W;
lastChange = "2016-09-25 22:41:52 +0000";
layers = (
{
layerId = "8841D1CF-9B01-449C-9B26-F87B28F18584";
paths = (
{
closed = 1;
nodes = (
"214 0 LINE",
"353 648 LINE",
"492 0 LINE",
"514 0 LINE",
"664 700 LINE",
"642 700 LINE",
"503 52 LINE",
"364 700 LINE",
"342 700 LINE",
"203 52 LINE",
"64 700 LINE",
"42 700 LINE",
"192 0 LINE"
);
}
);
width = 706;
},
{
layerId = "59CB0402-E5A9-408B-857A-05EE50EAFC2E";
paths = (
{
closed = 1;
nodes = (
"388 1 LINE",
"430 227 LINE",
"472 1 LINE",
"688 1 LINE",
"838 700 LINE",
"622 700 LINE",
"580 463 LINE",
"538 699 LINE",
"322 699 LINE",
"280 463 LINE",
"238 700 LINE",
"22 700 LINE",
"172 1 LINE"
);
}
);
width = 860;
}
);
unicode = 0057;
},
{
color = 1;
glyphname = X;
lastChange = "2016-09-25 22:41:53 +0000";
layers = (
{
layerId = "8841D1CF-9B01-449C-9B26-F87B28F18584";
paths = (
{
closed = 1;
nodes = (
"436 700 LINE",
"458 700 LINE",
"58 0 LINE",
"36 0 LINE"
);
},
{
closed = 1;
nodes = (
"36 700 LINE",
"58 700 LINE",
"458 0 LINE",
"436 0 LINE"
);
}
);
width = 494;
},
{
layerId = "59CB0402-E5A9-408B-857A-05EE50EAFC2E";
paths = (
{
closed = 1;
nodes = (
"421 700 LINE",
"659 700 LINE",
"259 0 LINE",
"21 0 LINE"
);
},
{
closed = 1;
nodes = (
"21 700 LINE",
"259 700 LINE",
"659 0 LINE",
"421 0 LINE"
);
}
);
width = 680;
}
);
unicode = 0058;
},
{
color = 1;
glyphname = Y;
lastChange = "2016-09-25 22:59:31 +0000";
layers = (
{
layerId = "8841D1CF-9B01-449C-9B26-F87B28F18584";
paths = (
{
closed = 1;
nodes = (
"452 700 LINE",
"426 700 LINE",
"239 372 LINE",
"52 700 LINE",
"26 700 LINE",
"239 328 LINE"
);
},
{
closed = 1;
nodes = (
"250 0 LINE",
"250 350 LINE",
"228 350 LINE",
"228 0 LINE"
);
}
);
width = 478;
},
{
layerId = "59CB0402-E5A9-408B-857A-05EE50EAFC2E";
paths = (
{
closed = 1;
nodes = (
"637 700 LINE",
"421 700 LINE",
"339 526 LINE",
"264 700 LINE",
"38 700 LINE",
"338 142 LINE"
);
},
{
closed = 1;
nodes = (
"444 0 LINE",
"444 350 LINE",
"232 350 LINE",
"232 0 LINE"
);
}
);
width = 675;
}
);
unicode = 0059;
},
{
color = 1;
glyphname = Z;
lastChange = "2016-09-25 22:41:53 +0000";
layers = (
{
layerId = "8841D1CF-9B01-449C-9B26-F87B28F18584";
paths = (
{
closed = 1;
nodes = (
"349 0 LINE",
"349 22 LINE",
"65 22 LINE",
"365 700 LINE",
"49 700 LINE",
"49 679 LINE",
"333 679 LINE",
"33 0 LINE"
);
}
);
width = 398;
},
{
layerId = "59CB0402-E5A9-408B-857A-05EE50EAFC2E";
paths = (
{
closed = 1;
nodes = (
"550 0 LINE",
"550 188 LINE",
"310 188 LINE",
"570 700 LINE",
"52 700 LINE",
"52 512 LINE",
"282 512 LINE",
"22 0 LINE"
);
}
);
width = 594;
}
);
unicode = 005A;
},
{
color = 1;
glyphname = a;
lastChange = "2016-09-25 22:41:53 +0000";
layers = (
{
layerId = "8841D1CF-9B01-449C-9B26-F87B28F18584";
paths = (
{
closed = 1;
nodes = (
"327 -11 OFFCURVE",
"386 50 OFFCURVE",
"386 150 CURVE SMOOTH",
"386 350 LINE SMOOTH",
"386 450 OFFCURVE",
"327 511 OFFCURVE",
"231 511 CURVE SMOOTH",
"134 511 OFFCURVE",
"71 450 OFFCURVE",
"71 350 CURVE SMOOTH",
"71 150 LINE SMOOTH",
"71 50 OFFCURVE",
"134 -11 OFFCURVE",
"231 -11 CURVE SMOOTH"
);
},
{
closed = 1;
nodes = (
"145 11 OFFCURVE",
"93 64 OFFCURVE",
"93 150 CURVE SMOOTH",
"93 350 LINE SMOOTH",
"93 436 OFFCURVE",
"147 490 OFFCURVE",
"232 490 CURVE SMOOTH",
"317 490 OFFCURVE",
"371 436 OFFCURVE",
"371 350 CURVE SMOOTH",
"371 150 LINE SMOOTH",
"371 64 OFFCURVE",
"319 11 OFFCURVE",
"232 11 CURVE SMOOTH"
);
},
{
closed = 1;
nodes = (
"393 0 LINE",
"393 500 LINE",
"371 500 LINE",
"371 0 LINE"
);
}
);
width = 477;
},
{
layerId = "59CB0402-E5A9-408B-857A-05EE50EAFC2E";
paths = (
{
closed = 1;
nodes = (
"315 0 OFFCURVE",
"495 138 OFFCURVE",
"495 178 CURVE SMOOTH",
"495 212 LINE SMOOTH",
"495 253 OFFCURVE",
"387 500 OFFCURVE",
"193 500 CURVE",
"90 500 OFFCURVE",
"33 449 OFFCURVE",
"33 350 CURVE SMOOTH",
"33 160 LINE SMOOTH",
"33 69 OFFCURVE",
"73 0 OFFCURVE",
"172 0 CURVE SMOOTH"
);
},
{
closed = 1;
nodes = (
"250 171 OFFCURVE",
"241 181 OFFCURVE",
"241 198 CURVE SMOOTH",
"241 312 LINE SMOOTH",
"241 329 OFFCURVE",
"250 339 OFFCURVE",
"266 339 CURVE SMOOTH",
"282 339 OFFCURVE",
"291 329 OFFCURVE",
"291 312 CURVE SMOOTH",
"291 198 LINE SMOOTH",
"291 181 OFFCURVE",
"282 171 OFFCURVE",
"266 171 CURVE SMOOTH"
);
},
{
closed = 1;
nodes = (
"499 0 LINE",
"499 500 LINE",
"291 500 LINE",
"291 0 LINE"
);
}
);
width = 543;
}
);
unicode = 0061;
},
{
color = 1;
glyphname = b;
lastChange = "2016-09-25 22:41:53 +0000";
layers = (
{
layerId = "8841D1CF-9B01-449C-9B26-F87B28F18584";
paths = (
{
closed = 1;
nodes = (
"346 -11 OFFCURVE",
"406 50 OFFCURVE",
"406 150 CURVE SMOOTH",
"406 350 LINE SMOOTH",
"406 450 OFFCURVE",
"346 511 OFFCURVE",
"248 511 CURVE SMOOTH",
"150 511 OFFCURVE",
"91 450 OFFCURVE",
"91 350 CURVE SMOOTH",
"91 150 LINE SMOOTH",
"91 50 OFFCURVE",
"150 -11 OFFCURVE",
"248 -11 CURVE SMOOTH"
);
},
{
closed = 1;
nodes = (
"106 0 LINE",
"106 700 LINE",
"84 700 LINE",
"84 0 LINE"
);
},
{
closed = 1;
nodes = (
"159 11 OFFCURVE",
"106 64 OFFCURVE",
"106 150 CURVE SMOOTH",
"106 350 LINE SMOOTH",
"106 437 OFFCURVE",
"159 490 OFFCURVE",
"245 490 CURVE SMOOTH",
"331 490 OFFCURVE",
"384 437 OFFCURVE",
"384 350 CURVE SMOOTH",
"384 150 LINE SMOOTH",
"384 64 OFFCURVE",
"331 11 OFFCURVE",
"245 11 CURVE SMOOTH"
);
}
);
width = 477;
},
{
layerId = "59CB0402-E5A9-408B-857A-05EE50EAFC2E";
paths = (
{
closed = 1;
nodes = (
"470 0 OFFCURVE",
"510 69 OFFCURVE",
"510 160 CURVE SMOOTH",
"510 350 LINE SMOOTH",
"510 441 OFFCURVE",
"462 510 OFFCURVE",
"371 510 CURVE",
"240 510 OFFCURVE",
"98 358 OFFCURVE",
"98 247 CURVE SMOOTH",
"98 183 LINE SMOOTH",
"98 142 OFFCURVE",
"228 0 OFFCURVE",
"371 0 CURVE SMOOTH"
);
},
{
closed = 1;
nodes = (
"252 0 LINE",
"252 700 LINE",
"44 700 LINE",
"44 0 LINE"
);
},
{
closed = 1;
nodes = (
"261 171 OFFCURVE",
"252 181 OFFCURVE",
"252 198 CURVE SMOOTH",
"252 312 LINE SMOOTH",
"252 329 OFFCURVE",
"261 339 OFFCURVE",
"277 339 CURVE SMOOTH",
"293 339 OFFCURVE",
"302 329 OFFCURVE",
"302 312 CURVE SMOOTH",
"302 198 LINE SMOOTH",
"302 181 OFFCURVE",
"293 171 OFFCURVE",
"277 171 CURVE SMOOTH"
);
}
);
width = 535;
}
);
unicode = 0062;
},
{
color = 1;
glyphname = c;
lastChange = "2016-09-25 22:41:52 +0000";
layers = (
{
layerId = "8841D1CF-9B01-449C-9B26-F87B28F18584";
paths = (
{
closed = 1;
nodes = (
"331 -11 OFFCURVE",
"393 50 OFFCURVE",
"393 150 CURVE SMOOTH",
"393 153 LINE",
"371 153 LINE",
"371 150 LINE SMOOTH",
"371 64 OFFCURVE",
"319 11 OFFCURVE",
"232 11 CURVE SMOOTH",
"145 11 OFFCURVE",
"93 64 OFFCURVE",
"93 150 CURVE SMOOTH",
"93 350 LINE SMOOTH",
"93 437 OFFCURVE",
"147 490 OFFCURVE",
"232 490 CURVE SMOOTH",
"317 490 OFFCURVE",
"371 437 OFFCURVE",
"371 350 CURVE SMOOTH",
"371 348 LINE",
"393 348 LINE",
"393 350 LINE SMOOTH",
"393 450 OFFCURVE",
"331 511 OFFCURVE",
"232 511 CURVE SMOOTH",
"133 511 OFFCURVE",
"71 450 OFFCURVE",
"71 350 CURVE SMOOTH",
"71 150 LINE SMOOTH",
"71 50 OFFCURVE",
"133 -11 OFFCURVE",
"232 -11 CURVE SMOOTH"
);
}
);
width = 437;
},
{
layerId = "59CB0402-E5A9-408B-857A-05EE50EAFC2E";
paths = (
{
closed = 1;
nodes = (
"413 -8 OFFCURVE",
"487 66 OFFCURVE",
"498 231 CURVE",
"498 233 LINE",
"286 233 LINE",
"286 188 LINE SMOOTH",
"286 171 OFFCURVE",
"277 161 OFFCURVE",
"261 161 CURVE SMOOTH",
"245 161 OFFCURVE",
"236 171 OFFCURVE",
"236 188 CURVE",
"236 322 LINE",
"236 339 OFFCURVE",
"245 349 OFFCURVE",
"261 349 CURVE SMOOTH",
"277 349 OFFCURVE",
"286 339 OFFCURVE",
"286 322 CURVE",
"286 277 LINE",
"498 277 LINE",
"498 279 LINE",
"496 437 OFFCURVE",
"422 508 OFFCURVE",
"260 508 CURVE SMOOTH",
"97 508 OFFCURVE",
"24 430 OFFCURVE",
"24 256 CURVE SMOOTH",
"24 247 LINE SMOOTH",
"24 71 OFFCURVE",
"97 -8 OFFCURVE",
"259 -8 CURVE SMOOTH"
);
}
);
width = 521;
}
);
unicode = 0063;
},
{
color = 1;
glyphname = d;
lastChange = "2016-09-25 22:41:52 +0000";
layers = (
{
layerId = "8841D1CF-9B01-449C-9B26-F87B28F18584";
paths = (
{
closed = 1;
nodes = (
"327 -11 OFFCURVE",
"386 50 OFFCURVE",
"386 150 CURVE SMOOTH",
"386 350 LINE SMOOTH",
"386 450 OFFCURVE",
"327 511 OFFCURVE",
"229 511 CURVE SMOOTH",
"131 511 OFFCURVE",
"71 450 OFFCURVE",
"71 350 CURVE SMOOTH",
"71 150 LINE SMOOTH",
"71 50 OFFCURVE",
"131 -11 OFFCURVE",
"229 -11 CURVE SMOOTH"
);
},
{
closed = 1;
nodes = (
"146 11 OFFCURVE",
"93 64 OFFCURVE",
"93 150 CURVE SMOOTH",
"93 350 LINE SMOOTH",
"93 437 OFFCURVE",
"146 490 OFFCURVE",
"232 490 CURVE SMOOTH",
"318 490 OFFCURVE",
"371 437 OFFCURVE",
"371 350 CURVE SMOOTH",
"371 150 LINE SMOOTH",
"371 64 OFFCURVE",
"318 11 OFFCURVE",
"232 11 CURVE SMOOTH"
);
},
{
closed = 1;
nodes = (
"393 0 LINE",
"393 700 LINE",
"371 700 LINE",
"371 0 LINE"
);
}
);
width = 477;
},
{
layerId = "59CB0402-E5A9-408B-857A-05EE50EAFC2E";
paths = (
{
closed = 1;
nodes = (
"307 0 OFFCURVE",
"487 138 OFFCURVE",
"487 178 CURVE SMOOTH",
"487 212 LINE SMOOTH",
"487 253 OFFCURVE",
"379 500 OFFCURVE",
"185 500 CURVE",
"82 500 OFFCURVE",
"25 449 OFFCURVE",
"25 350 CURVE SMOOTH",
"25 160 LINE SMOOTH",
"25 69 OFFCURVE",
"65 0 OFFCURVE",
"164 0 CURVE SMOOTH"
);
},
{
closed = 1;
nodes = (
"241 171 OFFCURVE",
"232 181 OFFCURVE",
"232 198 CURVE SMOOTH",
"232 312 LINE SMOOTH",
"232 329 OFFCURVE",
"241 339 OFFCURVE",
"257 339 CURVE SMOOTH",
"273 339 OFFCURVE",
"282 329 OFFCURVE",
"282 312 CURVE SMOOTH",
"282 198 LINE SMOOTH",
"282 181 OFFCURVE",
"273 171 OFFCURVE",
"257 171 CURVE SMOOTH"
);
},
{
closed = 1;
nodes = (
"490 0 LINE",
"490 700 LINE",
"282 700 LINE",
"282 0 LINE"
);
}
);
width = 534;
}
);
unicode = 0064;
},
{
color = 1;
glyphname = e;
lastChange = "2016-09-25 22:41:53 +0000";
layers = (
{
layerId = "8841D1CF-9B01-449C-9B26-F87B28F18584";
paths = (
{
closed = 1;
nodes = (
"331 -11 OFFCURVE",
"393 50 OFFCURVE",
"393 150 CURVE SMOOTH",
"393 154 LINE",
"371 154 LINE",
"371 150 LINE SMOOTH",
"371 64 OFFCURVE",
"319 11 OFFCURVE",
"232 11 CURVE SMOOTH",
"145 11 OFFCURVE",
"93 64 OFFCURVE",
"93 150 CURVE SMOOTH",
"93 350 LINE SMOOTH",
"93 437 OFFCURVE",
"147 490 OFFCURVE",
"232 490 CURVE SMOOTH",
"317 490 OFFCURVE",
"371 437 OFFCURVE",
"371 350 CURVE SMOOTH",
"371 261 LINE",
"88 261 LINE",
"88 240 LINE",
"393 240 LINE",
"393 350 LINE SMOOTH",
"393 450 OFFCURVE",
"331 511 OFFCURVE",
"232 511 CURVE SMOOTH",
"133 511 OFFCURVE",
"71 450 OFFCURVE",
"71 350 CURVE SMOOTH",
"71 150 LINE SMOOTH",
"71 50 OFFCURVE",
"133 -11 OFFCURVE",
"232 -11 CURVE SMOOTH"
);
}
);
width = 456;
},
{
layerId = "59CB0402-E5A9-408B-857A-05EE50EAFC2E";
paths = (
{
closed = 1;
nodes = (
"414 -8 OFFCURVE",
"488 55 OFFCURVE",
"498 198 CURVE",
"498 198 LINE",
"286 198 LINE",
"286 188 LINE SMOOTH",
"286 171 OFFCURVE",
"277 161 OFFCURVE",
"261 161 CURVE SMOOTH",
"245 161 OFFCURVE",
"236 171 OFFCURVE",
"236 188 CURVE SMOOTH",
"236 322 LINE SMOOTH",
"236 339 OFFCURVE",
"245 349 OFFCURVE",
"261 349 CURVE SMOOTH",
"277 349 OFFCURVE",
"286 339 OFFCURVE",
"286 322 CURVE SMOOTH",
"286 279 LINE",
"225 279 LINE",
"225 231 LINE",
"498 231 LINE",
"498 262 LINE",
"496 432 OFFCURVE",
"422 508 OFFCURVE",
"260 508 CURVE SMOOTH",
"97 508 OFFCURVE",
"24 430 OFFCURVE",
"24 256 CURVE SMOOTH",
"24 247 LINE SMOOTH",
"24 71 OFFCURVE",
"97 -8 OFFCURVE",
"259 -8 CURVE SMOOTH"
);
}
);
width = 522;
},
{
associatedMasterId = "8841D1CF-9B01-449C-9B26-F87B28F18584";
layerId = "9A50E751-D878-44E4-8C48-20211EFA92C6";
name = "Brace {120,100}";
paths = (
{
closed = 1;
nodes = (
"368 -9 OFFCURVE",
"437 53 OFFCURVE",
"442 176 CURVE",
"442 178 LINE",
"317 178 LINE",
"317 176 LINE SMOOTH",
"317 131 OFFCURVE",
"289 103 OFFCURVE",
"240 103 CURVE SMOOTH",
"192 103 OFFCURVE",
"163 133 OFFCURVE",
"163 181 CURVE SMOOTH",
"163 324 LINE SMOOTH",
"163 373 OFFCURVE",
"193 403 OFFCURVE",
"240 403 CURVE SMOOTH",
"288 403 OFFCURVE",
"317 373 OFFCURVE",
"317 324 CURVE SMOOTH",
"317 299 LINE",
"155 299 LINE",
"155 211 LINE",
"442 211 LINE",
"442 302 LINE",
"441 440 OFFCURVE",
"373 509 OFFCURVE",
"240 509 CURVE SMOOTH",
"106 509 OFFCURVE",
"38 439 OFFCURVE",
"38 299 CURVE SMOOTH",
"38 203 LINE SMOOTH",
"38 61 OFFCURVE",
"106 -9 OFFCURVE",
"239 -9 CURVE SMOOTH"
);
}
);
width = 477;
visible = 1;
}
);
unicode = 0065;
},
{
color = 1;
glyphname = f;
lastChange = "2016-09-25 22:47:24 +0000";
layers = (
{
layerId = "8841D1CF-9B01-449C-9B26-F87B28F18584";
paths = (
{
closed = 1;
nodes = (
"112 0 LINE",
"112 550 LINE SMOOTH",
"112 637 OFFCURVE",
"165 690 OFFCURVE",
"251 690 CURVE",
"251 711 LINE",
"151 711 OFFCURVE",
"90 650 OFFCURVE",
"90 550 CURVE SMOOTH",
"90 0 LINE"
);
},
{
closed = 1;
nodes = (
"221 479 LINE",
"221 500 LINE",
"21 500 LINE",
"21 479 LINE"
);
}
);
width = 224;
},
{
layerId = "59CB0402-E5A9-408B-857A-05EE50EAFC2E";
paths = (
{
closed = 1;
nodes = (
"274 8 LINE",
"274 527 LINE",
"274 547 OFFCURVE",
"286 551 OFFCURVE",
"308 551 CURVE",
"308 693 LINE",
"168 700 OFFCURVE",
"62 690 OFFCURVE",
"62 549 CURVE",
"62 8 LINE"
);
},
{
closed = 1;
nodes = (
"326 326 LINE",
"326 500 LINE",
"16 500 LINE",
"16 326 LINE"
);
}
);
width = 347;
},
{
associatedMasterId = "8841D1CF-9B01-449C-9B26-F87B28F18584";
layerId = "2A54E209-1ED7-4A8E-ADE2-3C776EC03571";
name = "Brace {120,100}";
paths = (
{
closed = 1;
nodes = (
"200 4 LINE",
"200 538 LINE",
"200 579 OFFCURVE",
"220 593 OFFCURVE",
"282 593 CURVE",
"282 701 LINE",
"160 705 OFFCURVE",
"75 681 OFFCURVE",
"75 549 CURVE",
"75 4 LINE"
);
},
{
closed = 1;
nodes = (
"278 396 LINE",
"278 500 LINE",
"18 500 LINE",
"18 396 LINE"
);
}
);
width = 291;
}
);
unicode = 0066;
},
{
color = 1;
glyphname = g;
lastChange = "2016-09-25 22:41:52 +0000";
layers = (
{
layerId = "8841D1CF-9B01-449C-9B26-F87B28F18584";
paths = (
{
closed = 1;
nodes = (
"332 -211 OFFCURVE",
"393 -150 OFFCURVE",
"393 -50 CURVE SMOOTH",
"393 500 LINE",
"371 500 LINE",
"371 -50 LINE SMOOTH",
"371 -137 OFFCURVE",
"318 -190 OFFCURVE",
"232 -190 CURVE",
"232 -211 LINE"
);
},
{
closed = 1;
nodes = (
"328 -11 OFFCURVE",
"386 51 OFFCURVE",
"386 150 CURVE SMOOTH",
"386 350 LINE SMOOTH",
"386 449 OFFCURVE",
"328 511 OFFCURVE",
"230 511 CURVE SMOOTH",
"133 511 OFFCURVE",
"71 450 OFFCURVE",
"71 350 CURVE SMOOTH",
"71 150 LINE SMOOTH",
"71 50 OFFCURVE",
"133 -11 OFFCURVE",
"230 -11 CURVE SMOOTH"
);
},
{
closed = 1;
nodes = (
"146 11 OFFCURVE",
"93 64 OFFCURVE",
"93 150 CURVE SMOOTH",
"93 350 LINE SMOOTH",
"93 437 OFFCURVE",
"146 490 OFFCURVE",
"232 490 CURVE SMOOTH",
"318 490 OFFCURVE",
"371 437 OFFCURVE",
"371 350 CURVE SMOOTH",
"371 150 LINE SMOOTH",
"371 64 OFFCURVE",
"318 11 OFFCURVE",
"232 11 CURVE SMOOTH"
);
}
);
width = 477;
},
{
layerId = "59CB0402-E5A9-408B-857A-05EE50EAFC2E";
paths = (
{
closed = 1;
nodes = (
"435 -226 OFFCURVE",
"494 -115 OFFCURVE",
"494 34 CURVE SMOOTH",
"494 500 LINE",
"282 500 LINE",
"282 34 LINE SMOOTH",
"282 -14 OFFCURVE",
"272 -44 OFFCURVE",
"138 -36 CURVE",
"138 -207 LINE"
);
},
{
closed = 1;
nodes = (
"307 0 OFFCURVE",
"487 138 OFFCURVE",
"487 178 CURVE SMOOTH",
"487 212 LINE SMOOTH",
"487 253 OFFCURVE",
"379 500 OFFCURVE",
"185 500 CURVE",
"82 500 OFFCURVE",
"25 449 OFFCURVE",
"25 350 CURVE SMOOTH",
"25 160 LINE SMOOTH",
"25 69 OFFCURVE",
"65 0 OFFCURVE",
"164 0 CURVE SMOOTH"
);
},
{
closed = 1;
nodes = (
"241 171 OFFCURVE",
"232 181 OFFCURVE",
"232 198 CURVE SMOOTH",
"232 312 LINE SMOOTH",
"232 329 OFFCURVE",
"241 339 OFFCURVE",
"257 339 CURVE SMOOTH",
"273 339 OFFCURVE",
"282 329 OFFCURVE",
"282 312 CURVE SMOOTH",
"282 198 LINE SMOOTH",
"282 181 OFFCURVE",
"273 171 OFFCURVE",
"257 171 CURVE SMOOTH"
);
}
);
width = 531;
}
);
unicode = 0067;
},
{
color = 1;
glyphname = h;
lastChange = "2016-09-25 22:41:53 +0000";
layers = (
{
layerId = "8841D1CF-9B01-449C-9B26-F87B28F18584";
paths = (
{
closed = 1;
nodes = (
"406 0 LINE",
"406 350 LINE SMOOTH",
"406 450 OFFCURVE",
"344 511 OFFCURVE",
"247 511 CURVE SMOOTH",
"149 511 OFFCURVE",
"91 450 OFFCURVE",
"91 350 CURVE",
"106 350 LINE",
"106 437 OFFCURVE",
"160 490 OFFCURVE",
"245 490 CURVE SMOOTH",
"330 490 OFFCURVE",
"384 437 OFFCURVE",
"384 350 CURVE SMOOTH",
"384 0 LINE"
);
},
{
closed = 1;
nodes = (
"106 0 LINE",
"106 700 LINE",
"84 700 LINE",
"84 0 LINE"
);
}
);
width = 483;
},
{
layerId = "59CB0402-E5A9-408B-857A-05EE50EAFC2E";
paths = (
{
closed = 1;
nodes = (
"510 0 LINE",
"510 350 LINE SMOOTH",
"510 441 OFFCURVE",
"472 510 OFFCURVE",
"367 510 CURVE SMOOTH",
"230 510 OFFCURVE",
"190 393 OFFCURVE",
"190 292 CURVE",
"252 312 LINE",
"252 329 OFFCURVE",
"261 339 OFFCURVE",
"277 339 CURVE SMOOTH",
"293 339 OFFCURVE",
"302 329 OFFCURVE",
"302 312 CURVE SMOOTH",
"302 0 LINE"
);
},
{
closed = 1;
nodes = (
"252 0 LINE",
"252 700 LINE",
"44 700 LINE",
"44 0 LINE"
);
}
);
width = 540;
}
);
unicode = 0068;
},
{
color = 1;
glyphname = i;
lastChange = "2016-09-25 22:41:52 +0000";
layers = (
{
layerId = "8841D1CF-9B01-449C-9B26-F87B28F18584";
paths = (
{
closed = 1;
nodes = (
"106 0 LINE",
"106 500 LINE",
"84 500 LINE",
"84 0 LINE"
);
},
{
closed = 1;
nodes = (
"117 659 OFFCURVE",
"136 677 OFFCURVE",
"136 700 CURVE SMOOTH",
"136 722 OFFCURVE",
"117 740 OFFCURVE",
"95 740 CURVE SMOOTH",
"73 740 OFFCURVE",
"54 722 OFFCURVE",
"54 700 CURVE SMOOTH",
"54 677 OFFCURVE",
"72 659 OFFCURVE",
"95 659 CURVE SMOOTH"
);
}
);
width = 190;
},
{
layerId = "59CB0402-E5A9-408B-857A-05EE50EAFC2E";
paths = (
{
closed = 1;
nodes = (
"249 0 LINE",
"249 500 LINE",
"41 500 LINE",
"41 0 LINE"
);
},
{
closed = 1;
nodes = (
"204 547 OFFCURVE",
"255 591 OFFCURVE",
"255 656 CURVE",
"255 715 OFFCURVE",
"204 763 OFFCURVE",
"145 763 CURVE SMOOTH",
"86 763 OFFCURVE",
"35 715 OFFCURVE",
"35 656 CURVE SMOOTH",
"35 595 OFFCURVE",
"84 547 OFFCURVE",
"145 547 CURVE SMOOTH"
);
}
);
width = 290;
}
);
unicode = 0069;
},
{
color = 1;
glyphname = j;
lastChange = "2016-09-25 22:41:52 +0000";
layers = (
{
layerId = "8841D1CF-9B01-449C-9B26-F87B28F18584";
paths = (
{
closed = 1;
nodes = (
"54 -211 OFFCURVE",
"106 -159 OFFCURVE",
"106 -74 CURVE SMOOTH",
"106 500 LINE",
"84 500 LINE",
"84 -74 LINE SMOOTH",
"84 -146 OFFCURVE",
"41 -190 OFFCURVE",
"-30 -190 CURVE",
"-30 -211 LINE"
);
},
{
closed = 1;
nodes = (
"120 659 OFFCURVE",
"136 675 OFFCURVE",
"136 700 CURVE SMOOTH",
"136 725 OFFCURVE",
"120 740 OFFCURVE",
"95 740 CURVE SMOOTH",
"70 740 OFFCURVE",
"54 725 OFFCURVE",
"54 700 CURVE SMOOTH",
"54 675 OFFCURVE",
"70 659 OFFCURVE",
"95 659 CURVE SMOOTH"
);
}
);
width = 190;
},
{
layerId = "59CB0402-E5A9-408B-857A-05EE50EAFC2E";
paths = (
{
closed = 1;
nodes = (
"196 -236 OFFCURVE",
"304 -200 OFFCURVE",
"303 -39 CURVE",
"303 500 LINE",
"95 500 LINE",
"95 -8 LINE",
"95 -40 OFFCURVE",
"46 -39 OFFCURVE",
"22 -26 CURVE",
"12 -201 LINE"
);
},
{
closed = 1;
nodes = (
"258 547 OFFCURVE",
"309 595 OFFCURVE",
"309 656 CURVE",
"309 715 OFFCURVE",
"258 763 OFFCURVE",
"199 763 CURVE SMOOTH",
"140 763 OFFCURVE",
"89 715 OFFCURVE",
"89 656 CURVE SMOOTH",
"89 595 OFFCURVE",
"138 547 OFFCURVE",
"199 547 CURVE SMOOTH"
);
}
);
width = 342;
}
);
unicode = 006A;
},
{
color = 1;
glyphname = k;
lastChange = "2016-09-25 22:41:53 +0000";
layers = (
{
layerId = "8841D1CF-9B01-449C-9B26-F87B28F18584";
paths = (
{
closed = 1;
nodes = (
"364 0 LINE",
"118 250 LINE",
"366 500 LINE",
"335 500 LINE",
"86 250 LINE",
"333 0 LINE"
);
},
{
closed = 1;
nodes = (
"106 1 LINE",
"107 700 LINE",
"85 700 LINE",
"84 1 LINE"
);
}
);
width = 377;
},
{
layerId = "59CB0402-E5A9-408B-857A-05EE50EAFC2E";
paths = (
{
closed = 1;
nodes = (
"324 0 LINE",
"78 250 LINE",
"326 500 LINE",
"295 500 LINE",
"46 250 LINE",
"293 0 LINE"
);
},
{
closed = 1;
nodes = (
"66 1 LINE",
"67 700 LINE",
"45 700 LINE",
"44 1 LINE"
);
}
);
width = 335;
}
);
unicode = 006B;
},
{
color = 1;
glyphname = l;
lastChange = "2016-09-25 22:41:52 +0000";
layers = (
{
layerId = "8841D1CF-9B01-449C-9B26-F87B28F18584";
paths = (
{
closed = 1;
nodes = (
"106 0 LINE",
"106 700 LINE",
"84 700 LINE",
"84 0 LINE"
);
}
);
width = 190;
},
{
layerId = "59CB0402-E5A9-408B-857A-05EE50EAFC2E";
paths = (
{
closed = 1;
nodes = (
"252 0 LINE",
"252 700 LINE",
"44 700 LINE",
"44 0 LINE"
);
}
);
width = 296;
}
);
unicode = 006C;
},
{
color = 1;
glyphname = m;
lastChange = "2016-09-25 22:41:53 +0000";
layers = (
{
layerId = "8841D1CF-9B01-449C-9B26-F87B28F18584";
paths = (
{
closed = 1;
nodes = (
"686 0 LINE",
"686 350 LINE SMOOTH",
"686 450 OFFCURVE",
"625 511 OFFCURVE",
"531 511 CURVE SMOOTH",
"436 511 OFFCURVE",
"381 450 OFFCURVE",
"381 350 CURVE",
"396 350 LINE",
"396 437 OFFCURVE",
"447 490 OFFCURVE",
"530 490 CURVE SMOOTH",
"613 490 OFFCURVE",
"664 437 OFFCURVE",
"664 350 CURVE SMOOTH",
"664 0 LINE"
);
},
{
closed = 1;
nodes = (
"396 0 LINE",
"396 350 LINE",
"396 450 OFFCURVE",
"335 511 OFFCURVE",
"241 511 CURVE SMOOTH",
"146 511 OFFCURVE",
"91 450 OFFCURVE",
"91 350 CURVE",
"106 350 LINE",
"106 437 OFFCURVE",
"157 490 OFFCURVE",
"240 490 CURVE SMOOTH",
"323 490 OFFCURVE",
"374 437 OFFCURVE",
"374 350 CURVE",
"374 0 LINE"
);
},
{
closed = 1;
nodes = (
"106 0 LINE",
"106 500 LINE",
"84 500 LINE",
"84 0 LINE"
);
}
);
width = 764;
},
{
layerId = "59CB0402-E5A9-408B-857A-05EE50EAFC2E";
paths = (
{
closed = 1;
nodes = (
"768 0 LINE",
"768 350 LINE SMOOTH",
"768 441 OFFCURVE",
"730 510 OFFCURVE",
"625 510 CURVE SMOOTH",
"488 510 OFFCURVE",
"448 393 OFFCURVE",
"448 292 CURVE",
"510 292 LINE",
"510 309 OFFCURVE",
"519 319 OFFCURVE",
"535 319 CURVE SMOOTH",
"551 319 OFFCURVE",
"560 309 OFFCURVE",
"560 292 CURVE SMOOTH",
"560 0 LINE"
);
},
{
closed = 1;
nodes = (
"510 0 LINE",
"510 350 LINE SMOOTH",
"510 441 OFFCURVE",
"472 510 OFFCURVE",
"367 510 CURVE SMOOTH",
"230 510 OFFCURVE",
"190 393 OFFCURVE",
"190 292 CURVE",
"252 292 LINE",
"252 309 OFFCURVE",
"261 319 OFFCURVE",
"277 319 CURVE SMOOTH",
"293 319 OFFCURVE",
"302 309 OFFCURVE",
"302 292 CURVE SMOOTH",
"302 0 LINE"
);
},
{
closed = 1;
nodes = (
"252 0 LINE",
"252 500 LINE",
"44 500 LINE",
"44 0 LINE"
);
}
);
width = 807;
}
);
unicode = 006D;
},
{
color = 1;
glyphname = n;
lastChange = "2016-09-25 22:41:53 +0000";
layers = (
{
layerId = "8841D1CF-9B01-449C-9B26-F87B28F18584";
paths = (
{
closed = 1;
nodes = (
"406 0 LINE",
"406 350 LINE SMOOTH",
"406 450 OFFCURVE",
"345 511 OFFCURVE",
"246 511 CURVE SMOOTH",
"150 511 OFFCURVE",
"91 450 OFFCURVE",
"91 350 CURVE",
"106 350 LINE",
"106 437 OFFCURVE",
"159 490 OFFCURVE",
"245 490 CURVE SMOOTH",
"331 490 OFFCURVE",
"384 437 OFFCURVE",
"384 350 CURVE SMOOTH",
"384 0 LINE"
);
},
{
closed = 1;
nodes = (
"106 0 LINE",
"106 500 LINE",
"84 500 LINE",
"84 0 LINE"
);
}
);
width = 484;
},
{
layerId = "59CB0402-E5A9-408B-857A-05EE50EAFC2E";
paths = (
{
closed = 1;
nodes = (
"510 0 LINE",
"510 350 LINE SMOOTH",
"510 441 OFFCURVE",
"472 510 OFFCURVE",
"367 510 CURVE SMOOTH",
"230 510 OFFCURVE",
"190 393 OFFCURVE",
"190 292 CURVE",
"252 312 LINE",
"252 329 OFFCURVE",
"261 339 OFFCURVE",
"277 339 CURVE SMOOTH",
"293 339 OFFCURVE",
"302 329 OFFCURVE",
"302 312 CURVE SMOOTH",
"302 0 LINE"
);
},
{
closed = 1;
nodes = (
"252 0 LINE",
"252 500 LINE",
"44 500 LINE",
"44 0 LINE"
);
}
);
width = 549;
}
);
unicode = 006E;
},
{
color = 1;
glyphname = o;
lastChange = "2016-09-25 22:41:52 +0000";
layers = (
{
layerId = "8841D1CF-9B01-449C-9B26-F87B28F18584";
paths = (
{
closed = 1;
nodes = (
"331 -11 OFFCURVE",
"393 51 OFFCURVE",
"393 150 CURVE SMOOTH",
"393 350 LINE SMOOTH",
"393 449 OFFCURVE",
"331 511 OFFCURVE",
"232 511 CURVE SMOOTH",
"133 511 OFFCURVE",
"71 449 OFFCURVE",
"71 350 CURVE SMOOTH",
"71 150 LINE SMOOTH",
"71 51 OFFCURVE",
"133 -11 OFFCURVE",
"232 -11 CURVE SMOOTH"
);
},
{
closed = 1;
nodes = (
"145 11 OFFCURVE",
"93 63 OFFCURVE",
"93 150 CURVE SMOOTH",
"93 350 LINE SMOOTH",
"93 437 OFFCURVE",
"145 490 OFFCURVE",
"232 490 CURVE SMOOTH",
"319 490 OFFCURVE",
"371 437 OFFCURVE",
"371 350 CURVE SMOOTH",
"371 150 LINE SMOOTH",
"371 63 OFFCURVE",
"319 11 OFFCURVE",
"232 11 CURVE SMOOTH"
);
}
);
width = 464;
},
{
layerId = "59CB0402-E5A9-408B-857A-05EE50EAFC2E";
paths = (
{
closed = 1;
nodes = (
"424 -8 OFFCURVE",
"498 72 OFFCURVE",
"498 247 CURVE",
"498 256 LINE",
"496 430 OFFCURVE",
"422 508 OFFCURVE",
"260 508 CURVE SMOOTH",
"97 508 OFFCURVE",
"24 430 OFFCURVE",
"24 256 CURVE",
"24 247 LINE",
"25 64 OFFCURVE",
"104 -8 OFFCURVE",
"260 -8 CURVE SMOOTH"
);
},
{
closed = 1;
nodes = (
"245 174 OFFCURVE",
"236 185 OFFCURVE",
"236 203 CURVE",
"236 299 LINE",
"236 316 OFFCURVE",
"245 326 OFFCURVE",
"261 326 CURVE SMOOTH",
"277 326 OFFCURVE",
"286 316 OFFCURVE",
"286 299 CURVE",
"286 203 LINE",
"286 185 OFFCURVE",
"277 174 OFFCURVE",
"261 174 CURVE SMOOTH"
);
}
);
width = 522;
}
);
unicode = 006F;
},
{
color = 1;
glyphname = r;
lastChange = "2016-09-25 22:42:12 +0000";
layers = (
{
layerId = "8841D1CF-9B01-449C-9B26-F87B28F18584";
paths = (
{
closed = 1;
nodes = (
"106 0 LINE",
"106 500 LINE",
"84 500 LINE",
"84 0 LINE"
);
},
{
closed = 1;
nodes = (
"291 497 LINE",
"277 505 OFFCURVE",
"257 511 OFFCURVE",
"238 511 CURVE SMOOTH",
"143 511 OFFCURVE",
"89 438 OFFCURVE",
"89 340 CURVE",
"106 340 LINE",
"106 427 OFFCURVE",
"156 492 OFFCURVE",
"238 492 CURVE SMOOTH",
"248 492 OFFCURVE",
"265 488 OFFCURVE",
"274 484 CURVE"
);
}
);
width = 292;
},
{
layerId = "59CB0402-E5A9-408B-857A-05EE50EAFC2E";
paths = (
{
closed = 1;
nodes = (
"252 0 LINE",
"252 500 LINE",
"44 500 LINE",
"44 0 LINE"
);
},
{
closed = 1;
nodes = (
"401 479 LINE",
"397 502 OFFCURVE",
"361 510 OFFCURVE",
"337 510 CURVE SMOOTH",
"239 510 OFFCURVE",
"190 382 OFFCURVE",
"190 268 CURVE",
"252 268 LINE",
"252 297 OFFCURVE",
"277 317 OFFCURVE",
"312 317 CURVE SMOOTH",
"323 317 OFFCURVE",
"333 315 OFFCURVE",
"343 302 CURVE"
);
}
);
width = 381;
}
);
unicode = 0072;
},
{
color = 1;
glyphname = s;
lastChange = "2016-09-25 22:41:52 +0000";
layers = (
{
layerId = "8841D1CF-9B01-449C-9B26-F87B28F18584";
paths = (
{
closed = 1;
nodes = (
"306 -11 OFFCURVE",
"372 41 OFFCURVE",
"372 120 CURVE SMOOTH",
"372 208 OFFCURVE",
"288 237 OFFCURVE",
"208 265 CURVE SMOOTH",
"137 289 OFFCURVE",
"70 312 OFFCURVE",
"70 375 CURVE SMOOTH",
"70 444 OFFCURVE",
"126 490 OFFCURVE",
"209 490 CURVE SMOOTH",
"292 490 OFFCURVE",
"348 444 OFFCURVE",
"348 375 CURVE SMOOTH",
"348 374 LINE",
"370 374 LINE",
"370 375 LINE SMOOTH",
"370 457 OFFCURVE",
"306 511 OFFCURVE",
"209 511 CURVE SMOOTH",
"112 511 OFFCURVE",
"48 457 OFFCURVE",
"48 375 CURVE SMOOTH",
"48 295 OFFCURVE",
"127 268 OFFCURVE",
"204 241 CURVE SMOOTH",
"277 216 OFFCURVE",
"350 191 OFFCURVE",
"350 120 CURVE SMOOTH",
"350 55 OFFCURVE",
"292 11 OFFCURVE",
"206 11 CURVE SMOOTH",
"123 10 OFFCURVE",
"68 54 OFFCURVE",
"68 120 CURVE SMOOTH",
"68 121 LINE",
"46 121 LINE",
"46 120 LINE SMOOTH",
"46 42 OFFCURVE",
"110 -10 OFFCURVE",
"206 -11 CURVE SMOOTH"
);
}
);
width = 419;
},
{
layerId = "59CB0402-E5A9-408B-857A-05EE50EAFC2E";
paths = (
{
closed = 1;
nodes = (
"366 -10 OFFCURVE",
"441 59 OFFCURVE",
"441 150 CURVE SMOOTH",
"441 212 OFFCURVE",
"407 267 OFFCURVE",
"323 294 CURVE SMOOTH",
"276 309 OFFCURVE",
"206 318 OFFCURVE",
"206 347 CURVE SMOOTH",
"206 355 OFFCURVE",
"212 369 OFFCURVE",
"228 369 CURVE SMOOTH",
"241 369 OFFCURVE",
"253 361 OFFCURVE",
"255 343 CURVE",
"255 334 LINE",
"433 334 LINE",
"433 343 LINE",
"430 440 OFFCURVE",
"356 510 OFFCURVE",
"227 510 CURVE SMOOTH",
"97 510 OFFCURVE",
"23 440 OFFCURVE",
"23 353 CURVE SMOOTH",
"23 289 OFFCURVE",
"64 236 OFFCURVE",
"143 210 CURVE SMOOTH",
"189 195 OFFCURVE",
"251 186 OFFCURVE",
"251 152 CURVE SMOOTH",
"251 138 OFFCURVE",
"241 129 OFFCURVE",
"228 129 CURVE SMOOTH",
"214 129 OFFCURVE",
"205 138 OFFCURVE",
"205 152 CURVE SMOOTH",
"205 168 LINE",
"22 168 LINE",
"22 158 LINE",
"22 64 OFFCURVE",
"102 -10 OFFCURVE",
"236 -10 CURVE SMOOTH"
);
}
);
width = 462;
}
);
unicode = 0073;
},
{
color = 1;
glyphname = t;
lastChange = "2016-09-25 22:41:52 +0000";
layers = (
{
layerId = "8841D1CF-9B01-449C-9B26-F87B28F18584";
paths = (
{
closed = 1;
nodes = (
"222 21 LINE",
"151 21 OFFCURVE",
"108 72 OFFCURVE",
"108 158 CURVE SMOOTH",
"108 700 LINE",
"86 700 LINE",
"86 158 LINE SMOOTH",
"86 58 OFFCURVE",
"138 -1 OFFCURVE",
"222 -1 CURVE"
);
},
{
closed = 1;
nodes = (
"222 479 LINE",
"222 500 LINE",
"22 500 LINE",
"22 479 LINE"
);
}
);
width = 233;
},
{
layerId = "59CB0402-E5A9-408B-857A-05EE50EAFC2E";
paths = (
{
closed = 1;
nodes = (
"313 171 LINE",
"283 166 OFFCURVE",
"262 160 OFFCURVE",
"262 192 CURVE",
"262 700 LINE",
"54 700 LINE",
"54 163 LINE",
"53 2 OFFCURVE",
"131 -24 OFFCURVE",
"305 1 CURVE"
);
},
{
closed = 1;
nodes = (
"328 326 LINE",
"328 500 LINE",
"18 500 LINE",
"18 326 LINE"
);
}
);
width = 349;
}
);
unicode = 0074;
},
{
color = 1;
glyphname = u;
lastChange = "2016-09-25 22:41:52 +0000";
layers = (
{
layerId = "8841D1CF-9B01-449C-9B26-F87B28F18584";
paths = (
{
closed = 1;
nodes = (
"339 -11 OFFCURVE",
"395 50 OFFCURVE",
"395 150 CURVE",
"378 150 LINE",
"378 63 OFFCURVE",
"325 10 OFFCURVE",
"239 10 CURVE SMOOTH",
"153 10 OFFCURVE",
"100 63 OFFCURVE",
"100 150 CURVE SMOOTH",
"100 500 LINE",
"78 500 LINE",
"78 150 LINE SMOOTH",
"78 50 OFFCURVE",
"139 -11 OFFCURVE",
"239 -11 CURVE SMOOTH"
);
},
{
closed = 1;
nodes = (
"400 0 LINE",
"400 500 LINE",
"378 500 LINE",
"378 0 LINE"
);
}
);
width = 484;
},
{
layerId = "59CB0402-E5A9-408B-857A-05EE50EAFC2E";
paths = (
{
closed = 1;
nodes = (
"326 -10 OFFCURVE",
"360 108 OFFCURVE",
"360 208 CURVE",
"298 188 LINE",
"298 171 OFFCURVE",
"289 161 OFFCURVE",
"273 161 CURVE SMOOTH",
"257 161 OFFCURVE",
"248 171 OFFCURVE",
"248 188 CURVE SMOOTH",
"248 500 LINE",
"40 500 LINE",
"40 150 LINE SMOOTH",
"40 53 OFFCURVE",
"61 -10 OFFCURVE",
"173 -10 CURVE SMOOTH"
);
},
{
closed = 1;
nodes = (
"506 0 LINE",
"506 500 LINE",
"298 500 LINE",
"298 0 LINE"
);
}
);
width = 550;
}
);
unicode = 0075;
},
{
color = 1;
glyphname = v;
lastChange = "2016-09-25 22:41:53 +0000";
layers = (
{
layerId = "8841D1CF-9B01-449C-9B26-F87B28F18584";
paths = (
{
closed = 1;
nodes = (
"206 0 LINE",
"371 500 LINE",
"349 500 LINE",
"195 35 LINE",
"41 500 LINE",
"19 500 LINE",
"184 0 LINE"
);
}
);
width = 390;
},
{
layerId = "59CB0402-E5A9-408B-857A-05EE50EAFC2E";
paths = (
{
closed = 1;
nodes = (
"198 0 LINE",
"363 500 LINE",
"341 500 LINE",
"187 35 LINE",
"33 500 LINE",
"11 500 LINE",
"176 0 LINE"
);
}
);
width = 374;
}
);
unicode = 0076;
},
{
color = 1;
glyphname = w;
lastChange = "2016-09-25 22:41:53 +0000";
layers = (
{
layerId = "8841D1CF-9B01-449C-9B26-F87B28F18584";
paths = (
{
closed = 1;
nodes = (
"182 0 LINE",
"306 458 LINE",
"430 0 LINE",
"452 0 LINE",
"587 500 LINE",
"565 500 LINE",
"441 42 LINE",
"317 500 LINE",
"295 500 LINE",
"171 42 LINE",
"47 500 LINE",
"25 500 LINE",
"160 0 LINE"
);
}
);
width = 612;
},
{
layerId = "59CB0402-E5A9-408B-857A-05EE50EAFC2E";
paths = (
{
closed = 1;
nodes = (
"169 0 LINE",
"293 458 LINE",
"417 0 LINE",
"439 0 LINE",
"574 500 LINE",
"552 500 LINE",
"428 42 LINE",
"304 500 LINE",
"282 500 LINE",
"158 42 LINE",
"34 500 LINE",
"12 500 LINE",
"147 0 LINE"
);
}
);
width = 586;
}
);
unicode = 0077;
},
{
color = 1;
glyphname = x;
lastChange = "2016-09-25 22:34:09 +0000";
layers = (
{
layerId = "8841D1CF-9B01-449C-9B26-F87B28F18584";
paths = (
{
closed = 1;
nodes = (
"349 500 LINE",
"371 500 LINE",
"41 0 LINE",
"19 0 LINE"
);
},
{
closed = 1;
nodes = (
"19 500 LINE",
"41 500 LINE",
"371 0 LINE",
"349 0 LINE"
);
}
);
width = 390;
},
{
layerId = "59CB0402-E5A9-408B-857A-05EE50EAFC2E";
width = 574;
}
);
unicode = 0078;
},
{
color = 1;
glyphname = y;
lastChange = "2016-09-25 22:41:53 +0000";
layers = (
{
layerId = "8841D1CF-9B01-449C-9B26-F87B28F18584";
paths = (
{
closed = 1;
nodes = (
"115 -211 OFFCURVE",
"150 -174 OFFCURVE",
"183 -73 CURVE SMOOTH",
"196 -34 LINE",
"196 -35 LINE",
"373 500 LINE",
"351 500 LINE",
"196 35 LINE",
"185 -1 LINE",
"163 -67 LINE SMOOTH",
"132 -160 OFFCURVE",
"103 -190 OFFCURVE",
"47 -190 CURVE",
"47 -211 LINE"
);
},
{
closed = 1;
nodes = (
"198 28 LINE",
"41 500 LINE",
"19 500 LINE",
"187 -7 LINE"
);
}
);
width = 393;
},
{
layerId = "59CB0402-E5A9-408B-857A-05EE50EAFC2E";
paths = (
{
closed = 1;
nodes = (
"106 -211 OFFCURVE",
"141 -174 OFFCURVE",
"174 -73 CURVE SMOOTH",
"187 -34 LINE",
"187 -35 LINE",
"364 500 LINE",
"342 500 LINE",
"187 35 LINE",
"176 -1 LINE",
"154 -67 LINE SMOOTH",
"123 -160 OFFCURVE",
"94 -190 OFFCURVE",
"38 -190 CURVE",
"38 -211 LINE"
);
},
{
closed = 1;
nodes = (
"189 28 LINE",
"32 500 LINE",
"10 500 LINE",
"178 -7 LINE"
);
}
);
width = 373;
}
);
unicode = 0079;
},
{
color = 1;
glyphname = z;
lastChange = "2016-09-25 22:41:52 +0000";
layers = (
{
layerId = "8841D1CF-9B01-449C-9B26-F87B28F18584";
paths = (
{
closed = 1;
nodes = (
"333 0 LINE",
"333 22 LINE",
"52 22 LINE",
"352 500 LINE",
"33 500 LINE",
"33 479 LINE",
"314 479 LINE",
"14 0 LINE"
);
}
);
width = 366;
},
{
layerId = "59CB0402-E5A9-408B-857A-05EE50EAFC2E";
paths = (
{
closed = 1;
nodes = (
"329 0 LINE",
"329 22 LINE",
"48 22 LINE",
"348 500 LINE",
"29 500 LINE",
"29 479 LINE",
"310 479 LINE",
"10 0 LINE"
);
}
);
width = 358;
}
);
unicode = 007A;
},
{
color = 1;
glyphname = period;
lastChange = "2016-09-25 22:41:53 +0000";
layers = (
{
layerId = "8841D1CF-9B01-449C-9B26-F87B28F18584";
paths = (
{
closed = 1;
nodes = (
"103 0 OFFCURVE",
"122 18 OFFCURVE",
"122 41 CURVE SMOOTH",
"122 63 OFFCURVE",
"103 81 OFFCURVE",
"81 81 CURVE SMOOTH",
"59 81 OFFCURVE",
"40 63 OFFCURVE",
"40 41 CURVE SMOOTH",
"40 18 OFFCURVE",
"58 0 OFFCURVE",
"81 0 CURVE SMOOTH"
);
}
);
width = 172;
},
{
layerId = "59CB0402-E5A9-408B-857A-05EE50EAFC2E";
paths = (
{
closed = 1;
nodes = (
"207 -6 OFFCURVE",
"256 40 OFFCURVE",
"256 99 CURVE",
"256 156 OFFCURVE",
"207 202 OFFCURVE",
"150 202 CURVE SMOOTH",
"93 202 OFFCURVE",
"44 156 OFFCURVE",
"44 99 CURVE SMOOTH",
"44 40 OFFCURVE",
"91 -6 OFFCURVE",
"150 -6 CURVE SMOOTH"
);
}
);
width = 300;
}
);
unicode = 002E;
},
